<svg xmlns="http://www.w3.org/2000/svg" viewBox="0 0 192.71 192.71"><defs><style>.cls-1{fill:#e1e1e1;stroke-width:0.71px;}.cls-1,.cls-2{stroke:#000;stroke-miterlimit:10;}.cls-2{fill:#fafafa;stroke-width:1.42px;}.cls-3{fill-rule:evenodd;}</style></defs><title>icon</title><g id="Layer_2" data-name="Layer 2"><g id="Layer_1-2" data-name="Layer 1"><circle class="cls-1" cx="96.36" cy="96.36" r="96"/><circle class="cls-2" cx="96.36" cy="96.36" r="87.47"/><path class="cls-3" d="M121.11,47.5c-.59.84-2.07-.12-3.17.44C116.57,46.36,121,45.88,121.11,47.5Z"/><path class="cls-3" d="M124,51.77c-.7.43-1-.47-1.42-.77-1.5-1.13-4.43-1.59-7.67-1.2-1.36.16-3,1.38-4,.33,0-.69,1-.81,1.76-1,2.18-.54,6.77-1,9.09,0a9.05,9.05,0,0,1,2.09,1.32C124.06,50.73,124.36,51.38,124,51.77Z"/><path class="cls-3" d="M135.36,53c-1.17.61-1.55-.72-2.41-1a8.45,8.45,0,0,0-4.16.33c-.62.17-1.66,1-2.19-.11.38-1,2-.9,3.06-1.21a13.32,13.32,0,0,1,3.51-.22C133.93,51.49,135.31,51.57,135.36,53Z"/><path class="cls-3" d="M124.62,55.83c1.58-.55,3-2.12,4.93-2.41a16.18,16.18,0,0,1,5.38.1c1.18.42,3.23,3.8,3.72,5.16a15.86,15.86,0,0,1,.22,9.31c3.08,1.36,3.86,4,4.6,8,.9,4.84,1.07,10-.32,14.36-.37,1.14-1,2.34-1.43,3.62a22,22,0,0,1-1.42,3.62,68.59,68.59,0,0,1-3.73,6.24c-1.06,1.48-2.55,2.55-3.51,4a33.51,33.51,0,0,1-2,3.18c-1,1.11-2.47,2-3.73,3.18-2.39,2.16-5,4.14-7.67,6.14-1.34,1-2.56,2.17-3.84,3.06-2.74,1.92-5.72,3.46-8.55,5.27-1.44.92-2.89,1.74-4.38,2.52s-3.22,1.26-4.82,2.08c-1.17.59-2.29,1.91-3.62,2.41s-2.85,1-4.49,1.43c-3.08.86-6.07,2.2-9.43,3.28a32.06,32.06,0,0,1-5.26,1.43c-.84.09-1.59-.06-2.3,0-4.87.38-9.8.22-12.39-2.41-.28-.29-.44-.79-.77-1.21s-.81-.7-1-1-.32-.86-.55-1.32a11.77,11.77,0,0,1-1.53-5.15c-6.15-.18-8.8-3.85-11.62-7.35-2.2-5.42-3-13.75-.77-19.83.26-.7.75-1.42,1.1-2.2a33.1,33.1,0,0,1,4.82-7.89c.46-.51,1.24-1,1.86-1.53a74.91,74.91,0,0,1,7.35-5.81,50,50,0,0,1,6-3.73c4.24-2.24,8.3-5,12.5-7.12a45.87,45.87,0,0,0,6-3.84c3.85-2.73,8.06-5,11.73-7.89.91-.73,1.87-1.41,2.85-2.08,1.46-1,2.64-2,4.16-3.07,1-.71,1.93-1.55,2.85-2.2,2.31-1.61,4.73-3.86,7.89-4.49,1.34-.26,4.36-.59,5.81-.11A18.22,18.22,0,0,1,123,53.63C123.69,54.23,124,55.22,124.62,55.83Zm-10.08-2.09c-2,.29-4.24,1.68-6,3-2,1.4-3.76,3.38-5.92,4.28-2,1.84-4.3,3.54-6.58,5.26-3.7,2.8-7.75,4.85-11.72,7.67-3.41,2.42-7.41,4.61-11,6.69-4.74,2.78-9.92,5.15-14,8.44-1.48,1.18-3.08,2.08-4.39,3.18a24.12,24.12,0,0,0-4.71,5.26,27.06,27.06,0,0,0-5,13.7,13.85,13.85,0,0,0,0,2.41c.33,3.64,1.15,7.93,3.07,10.3a15.92,15.92,0,0,0,2.19,2c1.79,1.46,2.94,2.5,6,2.52a11.28,11.28,0,0,1,.11-2.52c-4.93-1.26-6.68-8.86-4.28-14.14a9.52,9.52,0,0,1-.33-4.06c.09-1.07.21-2.47.88-2.74,1.34.77-.21,3.16.44,4.6,1.4-1.35,1.31-4.73,1.31-7.56,0-.81-.3-2.09.66-2.3,1.16.45.17,3,.66,4.16.39-.92,1.24-1.39,1.86-2.08v-3.4c0-1-.36-2.69.88-2.63.71,1.12.15,3.51.33,5.15.47-.18.88-.08,1.2-.21a22.16,22.16,0,0,1,.33-3.73c.08-1.22-.44-2.81.55-3.4.78.18.54,1.17.55,1.86,0,1.94-.25,3.88-.22,5.48.57-.28,1.36-.46,1.64-1.09.95-2.15-.92-7.07.66-8.66,1,.47.66,2.11.66,3.4v4.16a7.17,7.17,0,0,0,1.86-1.2c0-1.11-.34-2.29-.44-3.62-.07-1-.28-3.26.66-3.18s.46,2.43.55,3.51a10.75,10.75,0,0,1,.22,2.63,5.55,5.55,0,0,0,2.52-1.43c-.09-1.3.11-2.38,0-3.94-.07-1-.77-3.83.44-3.73.93.08.49,1.87.55,2.63.09,1.25.28,3.14.32,4.28.59-.51,1.47-.73,2-1.32V89.15c0-1-.39-3.71.66-3.51,1.2.23-.1,5.26.54,5.92.25-1.26,1.66-1.34,2.41-2.08A22.06,22.06,0,0,1,76.94,86c.07-.73-.3-2,.66-2,1.35,1.18-.2,3.47.22,5.48a8.15,8.15,0,0,0,2,.43,28.27,28.27,0,0,0,.11-4.27c0-1-.39-3.92.66-3.73.83.16.44,2.53.44,3.4v3.84c.64-.23,1-.72,1.64-1a33.6,33.6,0,0,1-.11-4.49c0-1.48-.46-3.44.66-4,1.25,1.5.11,5.37.66,7.56.54-.59,1.44-.82,1.86-1.53-.11-1.62.15-3.86,0-5.59,0-.44-.64-1.93.33-2s.84,2,.88,2.63c.08,1.54-.07,2.89,0,4.16.48-.14.71-.53,1.09-.77a16.74,16.74,0,0,0-.11-4.27c-.1-1.4-.58-3.31.55-4,.94.47.49,2,.55,3.07a28.69,28.69,0,0,1,.22,4.39,9.82,9.82,0,0,0,2-.88A9.69,9.69,0,0,0,91,80.38c-.09-1.17-.36-6.54.66-6.47,1.3.09.07,4.42.66,5.59.19-1,1.46-1.2,1.64-2.3.22-1.32-.84-4.12-1-5.15,2.07-.83,1.64,2.64,2,4.27.44.15,1.07-.36,1.64-.43,0-1-1.11-5.44.22-5.16,1,.21.59,3.94.88,5a5.74,5.74,0,0,1,1,.32,28.35,28.35,0,0,0,.1-4.16c0-1-.4-3.84.55-3.84s.55,2.84.55,3.73v4.38c.79-.74,2.27-.82,2.63-2s0-3.21,0-4.71-.4-3.47.55-4.17c.94.67.55,2.4.55,3.84v4.38a7.12,7.12,0,0,0,1.75-1.42c-.11-1.55.14-3.54,0-5.26,0-.63-.63-2.32.22-2.52s.94,2.24,1,2.84c.11,1.6-.09,2.77,0,4.06.55-.07,1.18-1,1.75-1.42.19-1.92-.41-3.87-.55-5.59,0-.67-.2-2.38.66-2.31s.49,1.87.55,2.52c.12,1.41.57,3,.55,4.39.87-.12.72-1.19,1-1.86.2-.51.69-.89.77-1.54.13-1-.44-2.49-.55-3.62-.06-.67-.31-1.85.66-2.08.67.26.36,1.08.44,1.65.16,1.15.49,2.4.66,3.4a10.62,10.62,0,0,1,2.19-1.32c-.06-.86.07-1.64,0-2.52-.14-1.65-1.24-3.57.11-4.39.76.16.46,1,.55,1.54a20.09,20.09,0,0,1,.54,4.71A14.15,14.15,0,0,0,117.72,61a35.48,35.48,0,0,0-.44-3.62c-.11-.4-1.18-2.6.22-2.3.53.12,1.1,2.68,1.2,3.73,0,.4,0,.92,0,1.31a12,12,0,0,0,4.06-3c-.62-.58-.77-1.64-1.65-2-.36,1.26.91,3.08-.21,3.18s-.83-2.19-.88-3.73C119,53.18,116.22,53.5,114.54,53.74ZM125,58.57c-2.18,1.74-4.88,3.31-6.69,5.15,3.73,1.94,4.75,6.58,8.55,8.44,1.35-1,2.67-2.08,3.95-3.18a17.23,17.23,0,0,1-.88-6.8c3.05-2.59,1.87,4.47,3,5.92.87-.56,2.69-.16,3.73-.55,1.8-4-.18-9.86-2.63-11.94C129.5,55,126.94,57,125,58.57ZM122.1,70.84c-.48-.53-1.11-1-1.53-1.53-1.07-1.41-1.85-3.21-3.73-3.84h-.22a41,41,0,0,0-4.27,4.06c.68,4.32,2.87,7.14,4.6,10.41a52,52,0,0,0,4.93-4,22.59,22.59,0,0,0,3-2.41C123.49,73,123,71.83,122.1,70.84Zm9.32,35.52c1.72-2.37,3.72-4.17,5.15-6.8A52.25,52.25,0,0,0,141.17,89c-1.13-.21-.65-1.56-.77-2.74a26.76,26.76,0,0,0-.65-3.18c-.25-1.11-.93-2.29-.22-2.85,1.15.3,1.29,1.88,1.53,3.07s.39,2.77.66,3.94c.67-3.41.14-7.68-.44-10.85-.36-2-.68-3.91-1.31-4.82-1.13-1.64-4.05-2-6.69-1.32-.95,2.61-2,5.67-6.25,4.61-1.71,1.56-3.87,2.5-5.59,4.16-.33.33-.51.88-.87,1.21-.94.84-2.33,1.09-2.63,2.08a8.26,8.26,0,0,0,0,1.86c-.46,4.7-4,7.84-9.32,5.92-3.79,3.08-8.07,5.67-12,8.66-.19,1.94.32,3.6-.11,4.94-1,3.2-7.64,3.41-9.86,1a43.14,43.14,0,0,1-5.59,3.18,40.86,40.86,0,0,0-5.92,3c-.6.43-1.13,1.15-1.75,1.64a5.31,5.31,0,0,1-2.09,1.32c-.49.08-1.28-.18-1.75-.11-1.09.17-2.76,1.32-3.95,2a16.4,16.4,0,0,0-3.5,2.52c-1.66,1.61-2.6,4.35-3.18,6.58-1,3.89.23,7.7,1.64,10.85,1.06.56,1.09,1.76,1.86,2.41,1.37,1.16,3.24,1.53,5.7,1.76a26.07,26.07,0,0,0,4.94-.33c.9-.07,1.7.1,2.41,0a36.11,36.11,0,0,0,5.92-1.87c2-.67,4-1.28,5.81-2s4-1.21,5.81-2,3.27-2.11,5-2.85a96.66,96.66,0,0,0,19.62-11.73c-.93-1.93-.23-5.46-.44-8.22-.14-1.86-.58-3.72-.77-5.26-.1-.87-.54-2.22.33-2.74,1.08.5.75,1.92.88,3,.43,3.62,1.13,8.11.76,12.49a15.79,15.79,0,0,0,3.18-2.41,109.48,109.48,0,0,0-1.53-11.07c-.14-.62-1.28-3.45-.11-3.51.86,0,1.2,3.15,1.31,3.62.71,3,1,6.72,1.43,10,.63-.41,1.87-.92,2.19-1.87.56-1.64-.33-4.81-.66-7-.12-.81-1.49-6.47-.22-6.36.56,0,.79,2.23.88,2.74a80.1,80.1,0,0,1,1.21,9.64C128.69,110.77,129.84,108.53,131.42,106.36ZM110.26,71.17c-2.61,2.5-5.84,4.38-8.55,6.8,3.54,1.8,4.6,6.07,6.91,9.09,2.3-1.71,4.26-3.77,6.69-5.37C113.57,78.24,111.4,75.23,110.26,71.17Zm-15,8.77c.37-.54,1.66-.75,1.2-1.75C96.07,78.72,94.94,79.08,95.25,79.94Zm4.49-.66c-1,.65-1.89,1.46-3.29,2.41-1,.68-2.74,1.54-3,2.2a7.09,7.09,0,0,0,0,2.3c.28,3.63,2.26,6.49,2.85,9.86a84.55,84.55,0,0,0,10.53-7.56C104.49,85.42,103.48,81,99.74,79.28Zm11.07,9.21c3.19.27,4.68-1.75,4.71-4.28C114,85.66,111.82,86.94,110.81,88.49Zm-19.62-3.4c-3.47,1.72-6.13,4.25-9.32,6.25,2.7,2.57,3.81,6.71,5.49,10.3a30.39,30.39,0,0,0,7-4.27C93.66,92.93,91.19,90.24,91.19,85.09ZM79.57,92.55c-1.57,1-3.39,1.72-4.93,2.74C73.72,100,76.3,103,75.74,108c3.31-1.69,7-3,9.75-5.26C83.62,99.53,82.7,94.23,79.57,92.55Zm-16.22,9.86c2.24,2.84,3.16,7,6.36,8.88a19.06,19.06,0,0,1,3.62-2c.83-3.7-.89-8-1.32-12.71C69.2,98.62,65.86,100.1,63.35,102.41Zm30.91-2.19c-1.54,1.34-3.67,2.1-5.37,3.29,1.41,1.13,4.7.74,5.59-.55C94.34,102.11,94.76,100.7,94.26,100.22Zm-28.17,11c-1.69-2.13-2.83-5.13-4.49-7.35-.11,0-.13-.08-.22-.1-.75.74-4,3-4.28,4.38-.38,1.86,2.54,7.44-.11,7.34-1.1,0-.85-1.07-1.09-2a25.25,25.25,0,0,1-.88-2.63c-2.28,3.74-2.37,11.46,2.08,12.82,1-6.09,5.18-8.92,10-11.18C67,111.93,66.42,111.59,66.09,111.18Z"/><path class="cls-3" d="M130.1,60c0,.39-.36.44-.76.44a19.62,19.62,0,0,0-1,2.08c-.25.93.15,2.48-1.1,2.52-.61-1.21.27-4.92,1.43-5.59C129,59.24,130.11,58.92,130.1,60Z"/><path class="cls-3" d="M95.14,61.85c.31,1.34-1.29,1.75-2.08,2.31s-1.71,1.44-2.52,2c-3.31,2.14-7.67,4.11-11.4,6-1.34.68-2.57,1.52-3.84,2.08a38.13,38.13,0,0,0-5.7,2.63c-.42.28-.84,1.09-1.53.66-.42-1.08.62-1.42,1.2-1.75,2.37-1.37,5-2.39,7.78-3.84,1-.51,1.86-1,2.85-1.43s1.73-1.06,2.63-1.53c4.27-2.21,8.46-4.27,12-7.23A1,1,0,0,1,95.14,61.85Z"/><path class="cls-3" d="M123.86,66.79a4.64,4.64,0,0,1-2-3.29C122.76,62.59,125,66.14,123.86,66.79Z"/><path class="cls-3" d="M85.38,64.59C84.71,66.2,82.8,67.28,81,68c-1.08.43-2.17,1.25-3.18,1-.09-1.27,1.49-1.58,2.52-2a14.8,14.8,0,0,0,4.38-2.85A.77.77,0,0,1,85.38,64.59Z"/><path class="cls-3" d="M116.07,70.19a1.84,1.84,0,0,1,.33,1.42c.34,1.75,2.64,2.56,2.3,4.28-.79.34-1.46-.88-2.08-1.65a6.74,6.74,0,0,1-1.42-2.52C115.12,71.18,115,70,116.07,70.19Z"/><path class="cls-3" d="M138.43,74a5,5,0,0,1-1.86-1.09c-.75.14-2.65,1.1-2.74,0-.06-.64,2-1.29,3-1.1C137.94,72.06,139.64,73.46,138.43,74Z"/><path class="cls-3" d="M141.94,100.44c-1-.28-.14-.87,0-1.32s.27-1.21.44-1.64c.39-1,.78-2.08,1.2-3.07A41.59,41.59,0,0,0,146,88.27c1.12-4.67.81-11.45-.77-15-.2-.44-.85-.91-.33-1.42,1.21-.66,1.82,1.82,2.19,3.29a31.78,31.78,0,0,1,0,13.59,33.26,33.26,0,0,1-1.86,4.82c-.34.79-.69,1.54-1,2.3s-.71,1.57-1,2.3C142.86,99.22,143,100.65,141.94,100.44Z"/><path class="cls-3" d="M131.09,75.56a.44.44,0,0,1,.66.33C132.1,77.5,129.61,76,131.09,75.56Z"/><path class="cls-3" d="M106.21,77.09c.5.4.22,1,.33,1.53a16.73,16.73,0,0,0,1.86,3.95c-.64.67.34,1.15-.33,1.75-.39.07-.53-.12-.77-.22-.13-.46,0-.55.22-.87-.9-1.61-2.8-3.76-1.86-6.14Z"/><path class="cls-3" d="M120,83.78c.06-1.07,1.27-1.33,2-1.76a15.09,15.09,0,0,1,2.3-1.31c.91-.42,1.73-1.6,2.63-2.19.48-.32,1.83-.77,2,0,.12.6-.78.7-1.21,1-1.34.9-3.28,2.49-5,3.51C121.82,83.49,120.81,84.33,120,83.78Z"/><path class="cls-3" d="M148.19,88.27c-.53-.68.06-1.65.33-2.52a13.93,13.93,0,0,0,.54-5.92c1.16-1.11,1.42,1,1.32,2.63C150.23,84.69,149.5,88.19,148.19,88.27Z"/><path class="cls-3" d="M104.13,88.49a.54.54,0,0,0-.33.33c-1.29,0-1.29-1.65-1.65-2.52a6.69,6.69,0,0,0-2-3c-.53-.06-1-.14-1.21-.55.52-1.38,2-.38,2.63.22C102.82,84.2,103.68,87,104.13,88.49Z"/><path class="cls-3" d="M138.87,94.3c-1.42.5-1.1-1.27-1.1-2.19a41.53,41.53,0,0,0-1.31-9.65c.22,0,.21-.3.44-.33.66-.11,1.17,2,1.42,3.07A29.12,29.12,0,0,1,138.87,94.3Z"/><path class="cls-3" d="M134.27,84.76c1,1.86,1,4.53,1.42,7,.21,1.13.39,2.43.55,3.61s.84,2.59-.22,3.29c-.89-.09-.58-1-.66-1.64-.5-3.78-1.54-8.28-1.75-12.06C133.84,84.92,133.92,84.71,134.27,84.76Z"/><path class="cls-3" d="M90.21,88.82c.13,1.23,1.05,2.86,1.42,4.16.31,1.08.81,3.16-.44,3.29-.74-.24-.36-1.23-.44-1.75-.27-2-1.4-3.82-1.86-5.59C89.13,88.37,89.8,88.49,90.21,88.82Z"/><path class="cls-3" d="M133.06,103.62c-.52-1.23,0-3.37-.11-5.38a29.07,29.07,0,0,0-.76-4.82c-.38-1.48-1.11-2.94-.77-4.27,1-.44,1,.87,1.2,1.64a30.17,30.17,0,0,1,1.54,10.52C134.09,102.22,134.19,103.61,133.06,103.62Z"/><path class="cls-3" d="M129.77,93.42c.43,3.26,1.13,6.88,1.65,10.2.14.88.47,2.18-.44,2.74-1-.28-.6-1.22-.66-1.87-.32-3.46-1.4-7-1.53-10.85a.54.54,0,0,1,.33-.33C129.45,93.23,129.52,93.42,129.77,93.42Z"/><path class="cls-3" d="M109.17,94c-.64,1.25-2.1,2.11-3.4,3s-2.82,1.7-4,2.41c-.08.06-2.34,2.21-2.52.66,0-.49,1.35-1.32,2.09-1.76a63.88,63.88,0,0,0,6.68-4.49A.65.65,0,0,1,109.17,94Z"/><path class="cls-3" d="M77.82,95.18c-.3,1.63-1.17,2.87-1,4.82.14,1.41.85,2.81,1,4.49,0,.08-.23.25-.22.55s.51,1.09-.44,1.1a5,5,0,0,1-.77-2.09c-.54-3-1.33-6.62.44-9,.09-.1.3-.07.33-.22C77.5,94.84,77.59,95.08,77.82,95.18Z"/><path class="cls-3" d="M44,97.15c.44.85-.29,1.25-.66,1.64-1.91,3.93-3.89,9.86-3.39,15.9a30.5,30.5,0,0,0,.65,3.06c.19,1,.64,2.07.22,2.85-1.19.2-1.22-1.54-1.42-2.52a22.26,22.26,0,0,1-.66-6.46,31.2,31.2,0,0,1,2.63-11.07C42,99.12,42.37,96.8,44,97.15Z"/><path class="cls-3" d="M128.68,109.31c-1,.1-.92-2-1-2.84a45,45,0,0,0-1.31-8.34c1.33-1.24,1.57,1.37,1.86,3.07.32,1.9.48,3.27.66,5.27C129,107.41,129.56,108.94,128.68,109.31Z"/><path class="cls-3" d="M38.58,101.86c.29,1.62-.72,3.85-.88,6-.1,1.38.49,3.51-.54,4.27-.86-.27-.56-1.43-.55-2.19,0-2.72.29-6.06,1.2-8.11C38.21,101.84,38.23,101.71,38.58,101.86Z"/><path class="cls-3" d="M71.46,102.63c.31.79,1.22,4,0,4.05-1,.09-.89-3.22-.65-4.05Z"/><path class="cls-3" d="M113,104.71c.79-.11,1,2.61,1.21,3.62A73.57,73.57,0,0,1,115,117c0,1.1.54,4-.66,3.72-.83-.2-.4-3.18-.44-4-.07-1.51-.32-3.76-.55-5.92s-.89-4.36-.65-5.7A.55.55,0,0,1,113,104.71Z"/><path class="cls-3" d="M62.59,107c.75,1.19.74,3.13,1.42,4.39-.19.1-.18.4-.44.43-1.42-.32-1.27-2.23-1.64-3.61-.16-.36-.8-.23-.88-.66C60.94,106.6,62,106.76,62.59,107Z"/><path class="cls-3" d="M109.5,107.45c1-1.29,1.36,1.31,1.53,2.41a52.82,52.82,0,0,1,.55,8.22c0,1.39.28,4.21-.55,4.28-1,.07-.66-3.37-.66-4.28,0-1.93.15-3.12,0-4.82C110.18,111,109.35,109,109.5,107.45Z"/><path class="cls-3" d="M106.87,108.44c.93.08,1.41,3.12,1.53,4.6.21,2.57,0,6,0,8.77,0,.85.27,2-.55,2.3-1-.2-.66-1.52-.66-2.3,0-2.69.22-6.16,0-8.88-.13-1.67-.87-3.05-.65-4.16A.54.54,0,0,1,106.87,108.44Z"/><path class="cls-3" d="M84.18,109.31c-.25,1.11-1.6,1.3-2.41,1.76a23.24,23.24,0,0,1-4,2.19c-.27-.16-.39-.49-.33-1,1.59-.89,4-2.48,5.7-3.28A.92.92,0,0,1,84.18,109.31Z"/><path class="cls-3" d="M104.89,125.21c-1.21-.73-.41-2.69-.33-4.06a44.87,44.87,0,0,0-1.2-11.84c1.12-1.33,1.76,2.09,2,3.73a59.35,59.35,0,0,1,.11,10.41C105.39,124.24,105.74,125,104.89,125.21Z"/><path class="cls-3" d="M101.82,126c-.54-.69,0-1.48.11-2.42a22.49,22.49,0,0,0,0-3.18c-.19-3-1-6.14-.87-8.44.41,0,.31-.12.65,0,.77,1.73,1.11,4.75,1.32,7.57a24.59,24.59,0,0,1,0,5.15C102.94,125.2,102.73,126,101.82,126Z"/><path class="cls-3" d="M99.08,113.92c.51.77.26,1.7.33,2.85.2,3.32.74,8,.44,11.29-.06.64,0,1.69-1,1.75-.8-.53-.17-1.6-.11-2.41.34-4.41-.55-9.64-.65-13.48C98.43,113.62,98.65,113.81,99.08,113.92Z"/><path class="cls-3" d="M131.75,114.36c-.19,2.92-3.09,3.13-4.28,5-3.7,1.8-6.88,4.8-10.52,7-.93.57-2.48,2.2-3.62,1a9.39,9.39,0,0,1,2.52-1.75c.85-.53,1.82-1,2.63-1.54s1.31-1.15,2.09-1.64,1.5-.91,2.19-1.43a16,16,0,0,1,3.94-2.63c1.26-1.52,3.44-2.11,4.17-4.16C131.1,113.84,131.51,114.17,131.75,114.36Z"/><path class="cls-3" d="M58.42,116.33c.35,1.42-1.43,1.87-2.63,1.1-.82-.53-2.18-3.46-.66-3.07,1.11.28.61,2.28,1.86,2.19C57.48,116.52,57.87,116,58.42,116.33Z"/><path class="cls-3" d="M72.56,114.91c.33-.29.84.18.77.65C73,116.5,71.53,115.29,72.56,114.91Z"/><path class="cls-3" d="M95.14,115.12h.55A34.63,34.63,0,0,1,96.45,126c-.09,1.16-.14,2.62-.87,3.28-1.13-.52-.43-1.92-.33-3.07a60,60,0,0,0-.44-10.63C94.79,115.29,95,115.22,95.14,115.12Z"/><path class="cls-3" d="M92.51,115.67c.55.32.7,1.76.76,2.52a52,52,0,0,1-.43,9c-.13,1.19-.28,3.66-1,3.73-1.17.11-.3-2.7-.22-3.29A71.1,71.1,0,0,0,92,115.78C92.12,115.78,92.41,115.37,92.51,115.67Z"/><path class="cls-3" d="M69.6,117.21c-.84,1.85-2.91,2.63-4.38,3.83-.7.57-.92,1.46-1.76,1.87-.42,1.07-.45,2.54-1,3.5,0,.77.11,1.64-.54,1.76-1.36-.73-.32-2.55-.11-3.95a5.43,5.43,0,0,1,.77-2c1.5-2.25,4.55-3.71,6.24-5.48C69.31,116.69,69.44,117,69.6,117.21Z"/><path class="cls-3" d="M89.11,117.43c.77,1.29.44,3.66.44,5.69s.12,4.32,0,6c-.06.87-.08,1.95-.88,2.31-1-.47-.39-1.14-.33-2,.12-1.51,0-3.81,0-6s-.16-4.82.22-5.8a.69.69,0,0,1,.33-.22Z"/><path class="cls-3" d="M85.27,122.69c0-.28.17-.35.33-.44,1.07-.2.77,1.8.77,3.07,0,2.62.1,4.77,0,7.45,0,1.16-.15,2.89-.88,2.85-.95-.05-.37-1.54-.33-2.08C85.4,130.53,84.89,125.82,85.27,122.69Z"/><path class="cls-3" d="M82.86,122.58c.61.93.27,2.2.33,3.51a41.24,41.24,0,0,1-.22,7.56c-.12.92.06,2.5-1.2,2.41-.48-1.4.29-3.12.43-5,.21-2.8-.58-5.92,0-8.44C82.61,122.57,82.52,122.45,82.86,122.58Z"/><path class="cls-3" d="M78.92,125a.55.55,0,0,1,.32-.33c1.48,0,.58,4.57.44,6.47a23.57,23.57,0,0,1-.44,4.05c-.19.91-.32,2-1,2-1.16-.14.12-3.15.22-4.17C78.71,130.62,78.77,127.39,78.92,125Z"/><path class="cls-3" d="M76.5,125.21c.65,3,.33,7.75-.11,11-.1.73,0,2-1.09,1.86-.84-.59-.14-1.15,0-1.86.55-2.91.12-7.58.44-10.63C75.67,125.1,76.15,125.22,76.5,125.21Z"/><path class="cls-3" d="M73.44,126.09a34.79,34.79,0,0,1-.44,9c-.19,1.13-.09,3-1.32,3.18-.65-1.16,0-2.59.22-3.95s.47-2.82.55-4.27a26,26,0,0,1,.11-3.84C72.7,125.89,73.15,126,73.44,126.09Z"/><path class="cls-3" d="M69.93,128.17c.75.35.44,1.53.44,2.3a21.51,21.51,0,0,1-.33,5c-.32,1.31-.7,3.1-1.87,3.07-.49-1.13.48-2.21.77-3.51.46-2,.18-4.41.44-6.79C69.54,128.28,69.83,127.87,69.93,128.17Z"/><path class="cls-3" d="M66.64,129.15c.84,2,.12,4.26-.33,6-.23.92-.26,2-1,2.41-1-.43-.43-1.6-.21-2.41a19.92,19.92,0,0,0,.76-5.59c0-.27.17-.34.33-.44Z"/><path class="cls-3" d="M109,130.8c1.24,1.83-2.56.56,0,0Z"/><path class="cls-3" d="M103.58,133.76c.3,0,.7-.1.76.43s-1.26,1-1.75,1.21c-3.27,1.68-6.4,3.16-9.75,4.6a23.11,23.11,0,0,1-5.48,1.76c-1.65.33-3.47,1.21-5.92,1.64-.73.13-1.49.34-1.54-.33-.07-.91,3-1.07,3.51-1.2,1.3-.33,2.53-1.07,4-1.32,3.11-.55,5.72-2.11,8.65-3.39s5.37-2.27,7.35-3.4C103.4,133.73,103.53,133.76,103.58,133.76Z"/><path class="cls-3" d="M90.75,143.18c.36-1,1.65-1.23,2.52-1.53a28.86,28.86,0,0,0,5.48-2.08,22.48,22.48,0,0,1,3.51-2c.35-.09.31-.56.66-.65a.69.69,0,0,1,.33-.22c1.81,1.18-1.39,2.28-2.41,2.85A23.25,23.25,0,0,1,96,142.09c-1,.28-1.87.55-2.74.87S91.33,144,90.75,143.18Z"/></g></g></svg>