<svg xmlns="http://www.w3.org/2000/svg" viewBox="0 0 174.93 174.93"><defs><style>.cls-1{fill:#fff;fill-rule:evenodd;}</style></defs><title>icon</title><g id="Layer_2" data-name="Layer 2"><g id="Layer_1-2" data-name="Layer 1"><path class="cls-1" d="M174.93,87.47A87.47,87.47,0,1,1,87.47,0,87.46,87.46,0,0,1,174.93,87.47ZM109.05,39.05c1.1-.56,2.58.4,3.18-.44C112.15,37,107.68,37.47,109.05,39.05ZM115,41.57a9.05,9.05,0,0,0-2.09-1.32c-2.32-1-6.91-.54-9.09,0-.72.18-1.74.3-1.76,1,1,1,2.59-.17,4-.33,3.25-.39,6.17.07,7.67,1.21.4.29.72,1.19,1.42.76C115.47,42.49,115.18,41.85,115,41.57Zm9.31.33a12.4,12.4,0,0,0-3.5.22c-1.09.3-2.69.22-3.07,1.2.53,1.08,1.58.28,2.19.11a8.45,8.45,0,0,1,4.16-.33c.87.28,1.24,1.6,2.41,1C126.42,42.68,125,42.6,124.28,41.9Zm-10.19,2.85a17.79,17.79,0,0,0-3.62-2.09c-1.45-.48-4.47-.15-5.81.11-3.16.63-5.58,2.88-7.89,4.5-.92.64-1.81,1.48-2.85,2.19-1.52,1-2.7,2.06-4.16,3.07-1,.67-1.94,1.35-2.85,2.08C83.24,57.54,79,59.78,75.18,62.5a45.22,45.22,0,0,1-6,3.84c-4.2,2.07-8.26,4.88-12.5,7.12a50.79,50.79,0,0,0-6,3.73A74.91,74.91,0,0,0,43.28,83c-.62.59-1.4,1-1.86,1.53a33.1,33.1,0,0,0-4.82,7.89c-.35.78-.84,1.5-1.1,2.2-2.24,6.08-1.43,14.41.77,19.84,2.82,3.49,5.47,7.17,11.62,7.34A11.72,11.72,0,0,0,49.42,127c.23.46.39,1,.55,1.32s.67.57,1,1,.48.92.76,1.21c2.59,2.63,7.52,2.79,12.39,2.41.71-.06,1.47.09,2.3,0a29.94,29.94,0,0,0,5.26-1.43C75,130.36,78,129,81.1,128.16c1.64-.46,3.19-.94,4.49-1.43s2.45-1.81,3.62-2.41c1.6-.82,3.27-1.27,4.82-2.08s2.94-1.6,4.39-2.52c2.82-1.81,5.8-3.35,8.55-5.26,1.27-.9,2.49-2.09,3.83-3.07,2.7-2,5.28-4,7.67-6.14,1.27-1.14,2.72-2.07,3.73-3.18a33.51,33.51,0,0,0,2-3.18c1-1.4,2.45-2.47,3.51-3.94a67.92,67.92,0,0,0,3.73-6.25,22,22,0,0,0,1.42-3.62c.43-1.28,1.06-2.48,1.43-3.62,1.39-4.37,1.22-9.52.33-14.35-.75-4-1.53-6.65-4.61-8a15.86,15.86,0,0,0-.22-9.31c-.49-1.36-2.54-4.74-3.72-5.15a15.86,15.86,0,0,0-5.37-.11c-2,.29-3.36,1.86-4.94,2.41C115.07,46.33,114.8,45.34,114.09,44.75Zm-3,1c.06,1.54-.29,3.83.88,3.73s-.15-1.92.22-3.18c.87.33,1,1.39,1.64,2a12,12,0,0,1-4.06,3c0-.38,0-.91,0-1.31-.1-1-.66-3.61-1.2-3.73-1.4-.3-.33,1.9-.22,2.3a35.82,35.82,0,0,1,.44,3.62A14.13,14.13,0,0,1,107,54a20.08,20.08,0,0,0-.55-4.71c-.09-.56.21-1.38-.55-1.54-1.35.82-.24,2.75-.11,4.39.07.88-.06,1.66,0,2.52a11.38,11.38,0,0,0-2.19,1.32c-.16-1-.49-2.25-.66-3.4-.08-.57.23-1.39-.44-1.65-1,.23-.72,1.41-.66,2.09.11,1.13.68,2.59.55,3.61-.08.65-.57,1-.77,1.54-.26.67-.11,1.74-1,1.86,0-1.38-.43-3-.55-4.38-.06-.66.36-2.45-.55-2.52s-.71,1.63-.66,2.3c.14,1.72.74,3.67.55,5.59-.57.41-1.2,1.35-1.75,1.42-.09-1.29.11-2.46,0-4-.05-.61,0-3.08-1-2.85s-.27,1.89-.22,2.52c.14,1.72-.11,3.71,0,5.26a7.12,7.12,0,0,1-1.75,1.42V60.31c0-1.44.39-3.17-.55-3.84-1,.7-.55,2.59-.55,4.17s.35,3.61,0,4.71-1.83,1.23-2.63,2V62.94c0-.88.41-3.73-.55-3.73s-.54,2.79-.54,3.84a28.37,28.37,0,0,1-.11,4.17,5.75,5.75,0,0,0-1-.33c-.29-1.11.1-4.84-.88-5-1.33-.29-.18,4.13-.22,5.15-.57.07-1.2.58-1.64.43-.33-1.62.1-5.1-2-4.27.14,1,1.2,3.83,1,5.15-.18,1.1-1.45,1.35-1.64,2.3-.58-1.17.64-5.5-.66-5.59-1-.07-.74,5.3-.66,6.47a9.14,9.14,0,0,1,.22,2.19,9.82,9.82,0,0,1-2,.88,28.69,28.69,0,0,0-.22-4.39c-.06-1.09.39-2.6-.55-3.06-1.13.63-.65,2.54-.55,3.94a16.36,16.36,0,0,1,.11,4.28c-.38.23-.61.63-1.09.76-.07-1.27.08-2.62,0-4.16,0-.64,0-2.67-.88-2.63s-.36,1.53-.33,2c.15,1.73-.11,4,0,5.59-.42.71-1.32.94-1.86,1.54-.55-2.2.59-6.07-.66-7.57-1.12.51-.66,2.47-.66,4a33.6,33.6,0,0,0,.11,4.49c-.6.27-1,.76-1.64,1V76.42c0-.87.4-3.24-.44-3.4-1-.19-.66,2.73-.66,3.73A28.45,28.45,0,0,1,70.9,81a8.64,8.64,0,0,1-2-.44c-.42-2,1.13-4.3-.22-5.48-1,0-.59,1.24-.66,2a22.16,22.16,0,0,0-.33,3.51c-.75.74-2.16.82-2.41,2.08-.64-.66.66-5.69-.54-5.92-1-.2-.66,2.53-.66,3.51v4.16c-.51.59-1.39.81-2,1.32,0-1.14-.24-3-.33-4.28-.06-.75.38-2.55-.55-2.63-1.21-.1-.51,2.77-.44,3.73.11,1.56-.08,2.64,0,4a5.57,5.57,0,0,1-2.52,1.42,10.75,10.75,0,0,0-.22-2.63c-.09-1.08.45-3.42-.55-3.51S56.8,84,56.87,85c.1,1.33.39,2.51.44,3.62a7,7,0,0,1-1.86,1.2V85.63c0-1.29.37-2.93-.66-3.4-1.58,1.59.29,6.51-.66,8.66-.28.63-1.07.81-1.64,1.1,0-1.61.24-3.55.22-5.48,0-.7.24-1.69-.55-1.87-1,.59-.47,2.19-.55,3.4a22.16,22.16,0,0,0-.33,3.73c-.31.13-.73,0-1.2.22-.18-1.65.38-4-.33-5.16-1.24-.06-.88,1.58-.88,2.64v3.39C48.25,93.56,47.41,94,47,95c-.49-1.13.5-3.72-.66-4.17-1,.21-.66,1.49-.66,2.3,0,2.83.09,6.21-1.31,7.57-.65-1.45.91-3.84-.44-4.61-.67.27-.79,1.67-.88,2.74a9.52,9.52,0,0,0,.33,4.06c-2.4,5.28-.65,12.88,4.28,14.14a11.31,11.31,0,0,0-.11,2.52c-3.08,0-4.24-1.06-6-2.52a15.31,15.31,0,0,1-2.19-2c-1.92-2.37-2.74-6.66-3.07-10.3a13.85,13.85,0,0,1,0-2.41,27.15,27.15,0,0,1,5-13.7A24.12,24.12,0,0,1,46,83.33c1.31-1.1,2.91-2,4.39-3.18,4.11-3.29,9.29-5.66,14-8.44C68,69.63,72,67.44,75.4,65c4-2.82,8-4.87,11.73-7.67,2.27-1.72,4.55-3.42,6.57-5.26,2.16-.9,4-2.88,5.92-4.28,1.79-1.28,4.07-2.67,6-3C107.33,44.61,110.11,44.29,111.13,45.73Zm13.92,1c2.45,2.08,4.43,7.91,2.63,12-1,.38-2.86,0-3.73.54-1.09-1.45.09-8.51-3-5.91a17.18,17.18,0,0,0,.88,6.79c-1.27,1.1-2.6,2.15-3.94,3.18-3.81-1.86-4.83-6.5-8.55-8.44,1.8-1.84,4.51-3.41,6.68-5.15C118.05,48.09,120.61,46.07,125.05,46.72Zm-9.1,18a22.82,22.82,0,0,1-3,2.42,51.88,51.88,0,0,1-4.93,3.94c-1.73-3.27-3.92-6.09-4.6-10.41a41,41,0,0,1,4.27-4.06H108c1.88.63,2.67,2.43,3.73,3.84.42.56,1,1,1.53,1.53C114.12,62.94,114.6,64.13,116,64.69Zm1.32,38.48a78.05,78.05,0,0,0-1.21-9.65c-.09-.51-.32-2.69-.88-2.74-1.27-.11.1,5.55.22,6.36.34,2.2,1.22,5.37.66,7-.32.95-1.56,1.46-2.19,1.87-.41-3.25-.72-7-1.43-10-.11-.47-.44-3.66-1.31-3.62-1.17.06,0,2.89.11,3.51A107.08,107.08,0,0,1,112.77,107a16,16,0,0,1-3.17,2.41c.36-4.38-.34-8.87-.77-12.49-.13-1,.21-2.46-.88-3-.86.52-.43,1.87-.33,2.74.19,1.54.63,3.4.77,5.26.21,2.76-.49,6.3.44,8.22a96.66,96.66,0,0,1-19.62,11.73c-1.77.74-3.23,2.09-5,2.85s-3.86,1.24-5.81,2-3.84,1.3-5.81,2a35.81,35.81,0,0,1-5.92,1.87c-.71.1-1.51-.07-2.41,0a26,26,0,0,1-4.93.33c-2.47-.23-4.34-.6-5.7-1.76-.78-.65-.81-1.85-1.87-2.41-1.41-3.15-2.66-7-1.64-10.85.58-2.23,1.52-5,3.18-6.58a16.76,16.76,0,0,1,3.5-2.52c1.19-.65,2.86-1.8,4-2,.48-.07,1.26.2,1.75.11a5.2,5.2,0,0,0,2.09-1.32c.62-.49,1.15-1.2,1.75-1.64a40.86,40.86,0,0,1,5.92-3,41.38,41.38,0,0,0,5.59-3.18c2.22,2.43,8.84,2.22,9.86-1,.43-1.34-.08-3,.11-4.94,3.88-3,8.16-5.58,12-8.66,5.37,1.92,8.86-1.22,9.32-5.91a8.35,8.35,0,0,1,0-1.87c.3-1,1.69-1.24,2.63-2.08.36-.32.54-.88.87-1.21,1.72-1.66,3.88-2.6,5.6-4.16,4.25,1.06,5.29-2,6.24-4.6,2.64-.74,5.56-.33,6.69,1.31.63.92.95,2.84,1.31,4.82.58,3.17,1.11,7.44.44,10.86-.26-1.18-.4-2.66-.66-4s-.38-2.77-1.53-3.07c-.71.56,0,1.74.22,2.85a29.44,29.44,0,0,1,.66,3.18c.11,1.19-.37,2.53.76,2.74a51.69,51.69,0,0,1-4.6,10.52c-1.43,2.63-3.43,4.43-5.15,6.8C121,99.64,119.8,101.88,117.27,103.17ZM106.42,72.81C104,74.4,102,76.46,99.73,78.18c-2.31-3-3.37-7.3-6.9-9.1,2.7-2.42,5.93-4.3,8.54-6.8C102.51,66.34,104.68,69.35,106.42,72.81ZM87.56,69.3c.46,1-.83,1.21-1.2,1.75C86.05,70.19,87.18,69.83,87.56,69.3ZM98,79.6a84.55,84.55,0,0,1-10.53,7.56c-.59-3.37-2.57-6.23-2.84-9.86a6.57,6.57,0,0,1,0-2.3c.21-.66,2-1.52,3-2.19,1.41-1,2.31-1.77,3.29-2.42C94.59,72.1,95.6,76.53,98,79.6Zm8.66-4.27c0,2.52-1.52,4.54-4.72,4.27C102.93,78.05,105.16,76.77,106.64,75.33ZM85.48,88.48a30.39,30.39,0,0,1-7,4.27C76.79,89.16,75.68,85,73,82.45c3.18-2,5.84-4.53,9.31-6.25C82.3,81.35,84.77,84,85.48,88.48ZM76.6,93.85c-2.78,2.22-6.44,3.57-9.75,5.26.56-5-2-8-1.1-12.71,1.55-1,3.36-1.76,4.94-2.74C73.81,85.34,74.74,90.64,76.6,93.85ZM63.12,87.71c.43,4.75,2.15,9,1.32,12.72a18.48,18.48,0,0,0-3.62,2c-3.2-1.88-4.12-6-6.36-8.88C57,91.21,60.31,89.73,63.12,87.71Zm22.47,6.36c-.89,1.29-4.18,1.68-5.59.55,1.7-1.19,3.83-1.94,5.37-3.29C85.87,91.82,85.46,93.22,85.59,94.07Zm-27.4,9.53c-4.8,2.26-9,5.09-10,11.18-4.46-1.36-4.37-9.08-2.09-12.82a25.25,25.25,0,0,0,.88,2.63c.24.91,0,1.93,1.1,2,2.64.1-.28-5.48.11-7.34.27-1.35,3.52-3.64,4.27-4.38.09,0,.11.11.22.11,1.66,2.21,2.8,5.21,4.49,7.34C57.53,102.7,58.14,103,58.19,103.6Zm61.6-53c-1.16.67-2,4.38-1.43,5.59,1.25,0,.85-1.59,1.1-2.52a19.62,19.62,0,0,1,1-2.08c.4,0,.75,0,.76-.44C121.22,50,120.14,50.36,119.79,50.55Zm-34.2,2.31c-3.49,3-7.67,5-12,7.23-.9.47-1.67,1.11-2.63,1.53s-1.9.93-2.85,1.43c-2.73,1.45-5.41,2.47-7.78,3.84-.58.33-1.62.67-1.2,1.75.69.43,1.11-.38,1.53-.66a38.13,38.13,0,0,1,5.7-2.63c1.28-.56,2.5-1.4,3.84-2.08,3.73-1.92,8.09-3.89,11.4-6,.81-.53,1.66-1.38,2.52-2s2.39-1,2.08-2.3A.89.89,0,0,0,85.59,52.86ZM113,54.61a4.62,4.62,0,0,0,2,3.29C116.07,57.25,113.87,53.7,113,54.61Zm-37.15.66a15,15,0,0,1-4.39,2.85c-1,.39-2.6.7-2.52,2,1,.26,2.1-.56,3.18-1,1.8-.71,3.71-1.79,4.38-3.39A.76.76,0,0,0,75.84,55.27Zm30.47,7.56a6.66,6.66,0,0,0,1.42,2.52c.62.77,1.29,2,2.08,1.65.34-1.72-2-2.53-2.3-4.28a1.84,1.84,0,0,0-.33-1.42C106.12,61.14,106.23,62.29,106.31,62.83Zm21.59.11c-1-.19-3,.46-3,1.1.09,1.1,2,.15,2.74,0a5,5,0,0,0,1.86,1.09C130.75,64.58,129.06,63.17,127.9,62.94Zm6.47,26.31c.27-.74.67-1.5,1-2.31s.65-1.51,1-2.3a33.26,33.26,0,0,0,1.86-4.82,31.78,31.78,0,0,0,0-13.59c-.37-1.47-1-4-2.19-3.29-.51.51.13,1,.33,1.43,1.59,3.56,1.89,10.35.77,15a41.59,41.59,0,0,1-2.42,6.14c-.42,1-.81,2.08-1.2,3.07-.17.43-.28,1.12-.44,1.64s-1,1,0,1.32S134,90.33,134.37,89.25ZM122.86,67c-.1-.44-.44-.4-.66-.33C120.72,67.14,123.21,68.61,122.86,67ZM96.77,68.2c-.94,2.38,1,4.53,1.86,6.14-.22.32-.35.41-.21.88.23.09.37.28.76.22.67-.61-.31-1.09.33-1.76a16.84,16.84,0,0,1-1.86-3.94c-.11-.52.17-1.14-.33-1.54Zm17,5.92c1.76-1,3.7-2.61,5-3.51.43-.28,1.33-.38,1.21-1-.15-.77-1.5-.32-2,0-.9.59-1.72,1.77-2.63,2.19a15.09,15.09,0,0,0-2.3,1.31c-.7.43-1.91.69-2,1.76C111.92,75.44,112.93,74.6,113.76,74.12Zm27.73-.55c.11-1.58-.16-3.74-1.31-2.63a13.93,13.93,0,0,1-.55,5.92c-.27.87-.86,1.84-.33,2.52C140.61,79.3,141.34,75.8,141.49,73.57Zm-48.77.55c-.62-.6-2.12-1.6-2.63-.22.17.42.67.49,1.2.55a6.61,6.61,0,0,1,2,3c.36.87.36,2.52,1.65,2.52a.54.54,0,0,1,.33-.33C94.79,78.11,93.93,75.32,92.72,74.12Zm36.71,2.19c-.25-1-.76-3.18-1.42-3.07-.22,0-.22.3-.44.33a41.5,41.5,0,0,1,1.32,9.65c0,.92-.33,2.69,1.09,2.19A29.12,29.12,0,0,0,129.43,76.31Zm-4.71-.22c.22,3.78,1.25,8.28,1.75,12.06.09.61-.23,1.55.66,1.64,1.06-.7.37-2.18.22-3.28S127,84,126.8,82.89c-.46-2.49-.46-5.16-1.42-7C125,75.82,125,76,124.72,76.09ZM80,80c.46,1.77,1.59,3.6,1.86,5.59.08.52-.3,1.52.44,1.75,1.25-.13.75-2.21.44-3.28-.37-1.31-1.29-2.94-1.42-4.17C80.91,79.6,80.24,79.48,80,80Zm45.27,12.38a29.94,29.94,0,0,0-1.54-10.52c-.21-.77-.21-2.08-1.2-1.64-.34,1.33.4,2.79.77,4.27a29,29,0,0,1,.76,4.83c.15,2-.41,4.14.11,5.37C125.3,94.72,125.2,93.33,125.27,92.42Zm-5-8a.54.54,0,0,0-.33.33c.13,3.89,1.21,7.39,1.53,10.85.06.65-.38,1.59.66,1.87.91-.55.58-1.85.44-2.74-.52-3.32-1.22-6.94-1.64-10.2C120.63,84.53,120.56,84.34,120.23,84.42Zm-21,.44a65.47,65.47,0,0,1-6.68,4.5c-.74.44-2.14,1.26-2.09,1.75.18,1.55,2.44-.6,2.52-.66,1.13-.7,2.59-1.52,3.95-2.41s2.76-1.71,3.4-3A.65.65,0,0,0,99.18,84.86ZM68.27,86c0,.15-.24.12-.33.22-1.77,2.36-1,6-.43,9a4.82,4.82,0,0,0,.76,2.09c1,0,.45-.76.44-1.1s.23-.47.22-.55c-.14-1.68-.85-3.07-1-4.49-.18-2,.69-3.19,1-4.82C68.7,86.19,68.61,86,68.27,86Zm-35.84,5.7a31.41,31.41,0,0,0-2.63,11.07,22.22,22.22,0,0,0,.66,6.46c.2,1,.23,2.73,1.42,2.53.42-.79,0-1.9-.22-2.85A31.28,31.28,0,0,1,31,105.8c-.5-6,1.48-12,3.4-15.9.36-.38,1.09-.79.65-1.64C33.48,87.92,33.15,90.23,32.43,91.66ZM120,97.58c-.18-2-.34-3.37-.66-5.27-.29-1.7-.53-4.31-1.86-3.06a44.88,44.88,0,0,1,1.31,8.33c.07.8,0,2.94,1,2.85C120.67,100.05,120.09,98.52,120,97.58ZM28.92,93c-.91,2-1.18,5.39-1.2,8.11,0,.76-.31,1.92.55,2.2,1-.76.44-2.9.55-4.28.15-2.18,1.16-4.41.87-6C29.35,92.82,29.33,93,28.92,93Zm33,.77c-.24.84-.34,4.14.65,4.05,1.22-.1.31-3.26,0-4.05Zm41.87,2.41c-.24,1.34.42,3.54.65,5.7s.49,4.41.55,5.92c0,.87-.39,3.85.44,4.06,1.2.28.71-2.63.66-3.73a73.57,73.57,0,0,0-.77-8.66c-.16-1-.42-3.73-1.21-3.62A.55.55,0,0,0,103.79,96.15ZM52.16,98.67c.08.43.72.3.88.66.37,1.38.22,3.29,1.64,3.62.26,0,.25-.34.44-.44-.68-1.26-.67-3.2-1.42-4.39C53.15,97.87,52.05,97.71,52.16,98.67Zm49.32,5.7c.15,1.7,0,2.89,0,4.82,0,.91-.33,4.35.66,4.28.83-.07.55-2.89.55-4.28a51.62,51.62,0,0,0-.55-8.22c-.17-1.1-.58-3.7-1.53-2.41C100.46,100.07,101.29,102.12,101.48,104.37Zm-3.83-4.49c-.21,1.12.52,2.49.66,4.16.21,2.72,0,6.19,0,8.88,0,.78-.34,2.1.65,2.3.83-.29.55-1.45.55-2.3,0-2.79.21-6.2,0-8.77-.12-1.48-.59-4.52-1.53-4.6A.54.54,0,0,0,97.65,99.88Zm-23.35.22c-1.67.81-4.11,2.39-5.7,3.28-.06.5.06.83.33,1a23.24,23.24,0,0,0,3.95-2.19c.82-.45,2.16-.65,2.41-1.75A.91.91,0,0,0,74.3,100.1Zm22.25,14.46a59.35,59.35,0,0,0-.11-10.41c-.21-1.64-.85-5.06-2-3.72a45.13,45.13,0,0,1,1.21,11.83c-.09,1.37-.89,3.33.32,4.06C96.85,116.15,96.5,115.35,96.55,114.56Zm-2.41,1.21a24.59,24.59,0,0,0,0-5.15c-.2-2.82-.55-5.84-1.31-7.56-.35-.13-.25,0-.66,0-.11,2.29.69,5.4.87,8.44a22.35,22.35,0,0,1,0,3.17c-.07.94-.65,1.73-.11,2.42C93.84,117.16,94.05,116.31,94.14,115.77ZM89.21,105c.1,3.84,1,9.07.66,13.48-.07.82-.7,1.88.1,2.41,1-.06.93-1.11,1-1.75.3-3.25-.24-8-.44-11.29-.07-1.15.18-2.07-.33-2.85C89.76,104.93,89.54,104.73,89.21,105Zm32.77.33c-.72,2-2.91,2.65-4.16,4.16a16.18,16.18,0,0,0-3.95,2.63c-.68.52-1.46,1-2.19,1.43s-1.37,1.13-2.08,1.64-1.79,1-2.63,1.54a9.51,9.51,0,0,0-2.53,1.75c1.15,1.21,2.69-.42,3.62-1,3.64-2.21,6.82-5.21,10.52-7,1.19-1.91,4.09-2.12,4.28-5C122.62,105.29,122.21,105,122,105.36Zm-73.87,2.3c-1.26.09-.76-1.91-1.87-2.19-1.52-.39-.16,2.54.66,3.07,1.2.77,3,.32,2.63-1.1C49,107.06,48.59,107.63,48.11,107.66Zm16.33-1c.07-.47-.44-.94-.77-.65C62.64,106.4,64.07,107.61,64.44,106.67Zm21.48,0a60,60,0,0,1,.44,10.63c-.1,1.15-.8,2.55.33,3.07.74-.65.79-2.12.87-3.28a34.63,34.63,0,0,0-.76-10.86h-.55C86.09,106.33,85.9,106.4,85.92,106.67Zm-2.85.22a71.1,71.1,0,0,1-.33,11.84c-.07.59-.95,3.4.22,3.29.71-.07.86-2.54,1-3.73a52.91,52.91,0,0,0,.44-9c-.07-.76-.22-2.2-.77-2.52C83.52,106.49,83.23,106.9,83.07,106.89Zm-23.13,1c-1.69,1.77-4.74,3.23-6.24,5.48a5.5,5.5,0,0,0-.77,2c-.21,1.41-1.25,3.22.11,4,.65-.12.55-1,.55-1.76.53-1,.56-2.43,1-3.5.84-.41,1.06-1.3,1.76-1.87,1.47-1.2,3.54-2,4.38-3.83C60.55,108.08,60.42,107.8,59.94,107.88Zm20.06.66a.69.69,0,0,0-.33.22c-.38,1-.22,3.66-.22,5.8s.12,4.52,0,6c-.06.85-.71,1.51.33,2,.8-.36.82-1.43.88-2.31.12-1.71,0-3.93,0-6s.33-4.41-.44-5.7Zm-3.73,16.11c0,.54-.61,2,.33,2.08.73,0,.84-1.69.88-2.85.1-2.68,0-4.83,0-7.45,0-1.27.3-3.27-.77-3.07-.16.09-.34.16-.33.44C76,116.94,76.52,121.64,76.27,124.65Zm-3-11c-.59,2.53.2,5.64,0,8.44-.15,1.92-.92,3.64-.44,5,1.26.09,1.08-1.49,1.2-2.41a41.21,41.21,0,0,0,.22-7.56c-.06-1.31.28-2.58-.33-3.51C73.63,113.56,73.72,113.68,73.32,113.69ZM69.59,124.1c-.1,1-1.37,4-.22,4.17.66.07.79-1.07,1-2a24.6,24.6,0,0,0,.43-4.05c.14-1.9,1-6.47-.43-6.47a.54.54,0,0,0-.33.33C69.88,118.51,69.82,121.73,69.59,124.1Zm-2.74-7.45c-.32,3,.12,7.72-.44,10.63-.14.71-.84,1.27,0,1.86,1,.11,1-1.13,1.1-1.86.43-3.21.75-8,.11-11C67.26,116.33,66.78,116.21,66.85,116.65Zm-3.18.65a27.42,27.42,0,0,0-.11,3.84c-.08,1.45-.34,2.93-.55,4.28s-.87,2.78-.22,3.94c1.23-.2,1.13-2.05,1.32-3.18a34.79,34.79,0,0,0,.44-9C64.26,117.09,63.81,117,63.67,117.3Zm-3.18,2.09c-.26,2.38,0,4.75-.44,6.79-.29,1.3-1.26,2.38-.76,3.51,1.17,0,1.54-1.76,1.86-3.07a21.51,21.51,0,0,0,.33-5c0-.77.31-2-.44-2.3C60.94,119,60.66,119.39,60.49,119.39Zm-3.18.87c-.16.1-.35.17-.33.44a19.87,19.87,0,0,1-.76,5.59c-.22.81-.78,2,.22,2.41.72-.36.75-1.48,1-2.41.45-1.76,1.17-4.07.33-6Zm42.75,1.65c-2.56.56,1.24,1.83,0,0Zm-5.59,3c-2,1.13-4.56,2.18-7.34,3.4-2.94,1.28-5.55,2.84-8.66,3.39-1.42.25-2.65,1-4,1.32-.53.13-3.58.29-3.51,1.2,0,.67.81.46,1.54.33,2.45-.43,4.27-1.31,5.92-1.64A23.11,23.11,0,0,0,84,131.11c3.35-1.44,6.48-2.92,9.75-4.6.49-.25,1.83-.59,1.76-1.2s-.46-.45-.77-.44C94.64,124.87,94.51,124.84,94.47,124.87Zm-10.08,9.21c.86-.32,1.79-.6,2.74-.88A23.41,23.41,0,0,0,92,130.68c1-.57,4.23-1.67,2.41-2.85a.69.69,0,0,0-.33.22c-.34.09-.31.56-.66.65a22,22,0,0,0-3.5,2,29.39,29.39,0,0,1-5.48,2.08c-.88.3-2.17.49-2.53,1.53C82.44,135.09,83.56,134.38,84.39,134.08Z"/></g></g></svg>